STARTFONT 2.1
COMMENT Various xbm icons.
FONT -Misc-Icons-Medium-R-Normal--12-87-100-100-C-70-ISO8859-1
SIZE 8 100 100
FONTBOUNDINGBOX 11 12 -1 -2
STARTPROPERTIES 24
FONTNAME_REGISTRY ""
FOUNDRY "Misc"
FAMILY_NAME "Icons"
WEIGHT_NAME "Medium"
SLANT "R"
SETWIDTH_NAME "Normal"
ADD_STYLE_NAME ""
PIXEL_SIZE 12
POINT_SIZE 87
RESOLUTION_X 100
RESOLUTION_Y 100
SPACING "C"
AVERAGE_WIDTH 70
CHARSET_REGISTRY "ISO8859"
CHARSET_ENCODING "1"
COPYRIGHT "GPLv2"
CAP_HEIGHT 7
X_HEIGHT 5
WEIGHT 10
QUAD_WIDTH 7
_GBDFED_INFO "Edited with gbdfed 1.6."
RESOLUTION 138
FONT_ASCENT 10
FONT_DESCENT 2
ENDPROPERTIES
CHARS 132
STARTCHAR char160
ENCODING 288
SWIDTH 900 0
DWIDTH 10 0
BBX 11 12 -1 -2
BITMAP
0000
0000
0000
0C00
0C00
1E00
2D00
2D00
2100
1E00
0000
0000
ENDCHAR
STARTCHAR char161
ENCODING 289
SWIDTH 900 0
DWIDTH 10 0
BBX 11 12 -1 -2
BITMAP
0000
0000
0000
0600
0F00
0900
0900
0900
0900
0F00
0000
0000
ENDCHAR
STARTCHAR char162
ENCODING 290
SWIDTH 900 0
DWIDTH 10 0
BBX 11 12 -1 -2
BITMAP
0000
0000
0000
0000
0000
0000
0F00
0000
0600
0600
0000
0000
ENDCHAR
STARTCHAR char163
ENCODING 291
SWIDTH 900 0
DWIDTH 10 0
BBX 11 12 -1 -2
BITMAP
0000
0000
0000
0000
3F00
0000
1E00
0000
0C00
0C00
0000
0000
ENDCHAR
STARTCHAR char164
ENCODING 292
SWIDTH 900 0
DWIDTH 10 0
BBX 11 12 -1 -2
BITMAP
0000
0000
0000
1E00
3300
2D00
2D00
3300
1E00
2100
0000
0000
ENDCHAR
STARTCHAR char165
ENCODING 293
SWIDTH 900 0
DWIDTH 10 0
BBX 11 12 -1 -2
BITMAP
0000
0000
1E00
3300
3F00
3300
3300
3300
3300
1E00
0000
0000
ENDCHAR
STARTCHAR char166
ENCODING 294
SWIDTH 900 0
DWIDTH 10 0
BBX 11 12 -1 -2
BITMAP
0000
0000
0000
1200
1200
3F00
3F00
1E00
0C00
0C00
0000
0000
ENDCHAR
STARTCHAR char167
ENCODING 295
SWIDTH 900 0
DWIDTH 10 0
BBX 11 12 -1 -2
BITMAP
0000
0000
1E00
3300
3300
3300
3300
3F00
3300
1E00
0000
0000
ENDCHAR
STARTCHAR char168
ENCODING 296
SWIDTH 900 0
DWIDTH 10 0
BBX 11 12 -1 -2
BITMAP
0000
0000
0000
3F00
2D00
2100
3F00
2D00
2100
3F00
0000
0000
ENDCHAR
STARTCHAR char169
ENCODING 297
SWIDTH 900 0
DWIDTH 10 0
BBX 11 12 -1 -2
BITMAP
0000
0000
0000
0C00
1E00
1E00
0C00
1E00
3F00
3F00
0000
0000
ENDCHAR
STARTCHAR char170
ENCODING 298
SWIDTH 900 0
DWIDTH 10 0
BBX 11 12 -1 -2
BITMAP
0000
0000
0000
0900
1C00
1D00
1400
2200
2200
1C00
0000
0000
ENDCHAR
STARTCHAR char171
ENCODING 299
SWIDTH 900 0
DWIDTH 10 0
BBX 11 12 -1 -2
BITMAP
0000
0000
0000
0A00
1400
2800
5000
2800
1400
0A00
0000
0000
ENDCHAR
STARTCHAR char172
ENCODING 300
SWIDTH 900 0
DWIDTH 10 0
BBX 11 12 -1 -2
BITMAP
0000
0000
0000
0000
0000
0100
0100
0500
0500
0500
0000
0000
ENDCHAR
STARTCHAR char173
ENCODING 301
SWIDTH 900 0
DWIDTH 10 0
BBX 11 12 -1 -2
BITMAP
0000
0000
0000
0100
0100
0500
0500
1500
1500
1500
0000
0000
ENDCHAR
STARTCHAR char174
ENCODING 302
SWIDTH 900 0
DWIDTH 10 0
BBX 11 12 -1 -2
BITMAP
0000
0000
0000
0000
3C00
2200
3900
2500
3500
3F00
0000
0000
ENDCHAR
STARTCHAR char175
ENCODING 303
SWIDTH 900 0
DWIDTH 10 0
BBX 11 12 -1 -2
BITMAP
0000
0000
0000
0000
3300
2D00
1E00
1E00
2D00
3300
0000
0000
ENDCHAR
STARTCHAR char176
ENCODING 304
SWIDTH 900 0
DWIDTH 10 0
BBX 11 12 -1 -2
BITMAP
0000
0000
1000
2800
2800
1000
0000
0000
0000
0000
0000
0000
ENDCHAR
STARTCHAR char177
ENCODING 305
SWIDTH 900 0
DWIDTH 10 0
BBX 11 12 -1 -2
BITMAP
0000
0000
0000
0C00
0F00
0C00
0F00
0C00
1E00
0C00
0000
0000
ENDCHAR
STARTCHAR char178
ENCODING 306
SWIDTH 900 0
DWIDTH 10 0
BBX 11 12 -1 -2
BITMAP
0000
0000
0000
0E00
1100
1100
1100
1F00
1F00
1F00
0000
0000
ENDCHAR
STARTCHAR char179
ENCODING 307
SWIDTH 900 0
DWIDTH 10 0
BBX 11 12 -1 -2
BITMAP
0000
0000
0000
0000
2100
1E00
1E00
1E00
1E00
2100
0000
0000
ENDCHAR
STARTCHAR char180
ENCODING 308
SWIDTH 900 0
DWIDTH 10 0
BBX 11 12 -1 -2
BITMAP
0000
0000
0E00
0E00
0000
1E00
0E00
0E00
0E00
1F00
0000
0000
ENDCHAR
STARTCHAR char181
ENCODING 309
SWIDTH 900 0
DWIDTH 10 0
BBX 11 12 -1 -2
BITMAP
0000
0000
0200
0400
0C00
1800
1F00
3E00
0600
0C00
0800
1000
ENDCHAR
STARTCHAR char182
ENCODING 310
SWIDTH 900 0
DWIDTH 10 0
BBX 11 12 -1 -2
BITMAP
0000
0000
0000
0000
1E00
3700
3700
3100
3F00
1E00
0000
0000
ENDCHAR
STARTCHAR char183
ENCODING 311
SWIDTH 900 0
DWIDTH 10 0
BBX 11 12 -1 -2
BITMAP
0000
0000
0000
1C00
3600
7700
7100
7F00
3E00
1C00
0000
0000
ENDCHAR
STARTCHAR char184
ENCODING 312
SWIDTH 900 0
DWIDTH 10 0
BBX 11 12 -1 -2
BITMAP
0000
0000
0000
0000
0C00
1600
3700
3100
1E00
0C00
0000
0000
ENDCHAR
STARTCHAR char185
ENCODING 313
SWIDTH 900 0
DWIDTH 10 0
BBX 11 12 -1 -2
BITMAP
0000
0000
0000
0C00
0C00
1E00
1E00
3300
3300
2100
0000
0000
ENDCHAR
STARTCHAR char186
ENCODING 314
SWIDTH 900 0
DWIDTH 10 0
BBX 11 12 -1 -2
BITMAP
0000
0000
0000
0000
1E00
3700
3E00
3C00
3F00
1E00
0000
0000
ENDCHAR
STARTCHAR char187
ENCODING 315
SWIDTH 900 0
DWIDTH 10 0
BBX 11 12 -1 -2
BITMAP
0000
0000
0000
5000
2800
1400
0A00
1400
2800
5000
0000
0000
ENDCHAR
STARTCHAR char188
ENCODING 316
SWIDTH 900 0
DWIDTH 10 0
BBX 11 12 -1 -2
BITMAP
0000
0000
0000
0400
2600
1500
0E00
1500
2600
0400
0000
0000
ENDCHAR
STARTCHAR char189
ENCODING 317
SWIDTH 900 0
DWIDTH 10 0
BBX 11 12 -1 -2
BITMAP
0000
0000
1E00
3F00
2100
2900
2500
2900
2100
1E00
0000
0000
ENDCHAR
STARTCHAR char190
ENCODING 318
SWIDTH 900 0
DWIDTH 10 0
BBX 11 12 -1 -2
BITMAP
0000
0000
1E00
3F00
2100
2D00
2100
2D00
2100
1E00
0000
0000
ENDCHAR
STARTCHAR char191
ENCODING 319
SWIDTH 900 0
DWIDTH 10 0
BBX 11 12 -1 -2
BITMAP
0000
0000
0000
0C00
3F00
2100
2D00
2D00
2100
3F00
0000
0000
ENDCHAR
STARTCHAR char192
ENCODING 320
SWIDTH 900 0
DWIDTH 10 0
BBX 11 12 -1 -2
BITMAP
0000
0000
0000
0000
0100
0500
3500
3500
0500
0100
0000
0000
ENDCHAR
STARTCHAR char193
ENCODING 321
SWIDTH 900 0
DWIDTH 10 0
BBX 11 12 -1 -2
BITMAP
0000
0000
0000
0000
0000
0100
0D00
0D00
0100
0000
0000
0000
ENDCHAR
STARTCHAR char194
ENCODING 322
SWIDTH 900 0
DWIDTH 10 0
BBX 11 12 -1 -2
BITMAP
0000
0000
0000
0000
1C00
7F00
7C00
7F00
1C00
0000
0000
0000
ENDCHAR
STARTCHAR char195
ENCODING 323
SWIDTH 900 0
DWIDTH 10 0
BBX 11 12 -1 -2
BITMAP
0000
0000
0000
0000
0200
0600
1D00
1A00
0400
0A00
0000
0000
ENDCHAR
STARTCHAR char196
ENCODING 324
SWIDTH 900 0
DWIDTH 10 0
BBX 11 12 -1 -2
BITMAP
0000
0000
0000
0000
0100
0300
0F00
0F00
0300
0100
0000
0000
ENDCHAR
STARTCHAR char197
ENCODING 325
SWIDTH 900 0
DWIDTH 10 0
BBX 11 12 -1 -2
BITMAP
0000
0000
0000
0000
0400
0C00
3D00
3D00
0C00
0400
0000
0000
ENDCHAR
STARTCHAR char198
ENCODING 326
SWIDTH 900 0
DWIDTH 10 0
BBX 11 12 -1 -2
BITMAP
0000
0000
0000
0000
1500
0000
1F00
1F00
0000
1500
0000
0000
ENDCHAR
STARTCHAR char199
ENCODING 327
SWIDTH 900 0
DWIDTH 10 0
BBX 11 12 -1 -2
BITMAP
0000
0000
0000
0000
3900
1F00
1300
3200
3E00
2700
0000
0000
ENDCHAR
STARTCHAR char200
ENCODING 328
SWIDTH 900 0
DWIDTH 10 0
BBX 11 12 -1 -2
BITMAP
0000
0000
0000
0000
3F00
3700
3700
3100
3F00
3F00
0000
0000
ENDCHAR
STARTCHAR char201
ENCODING 329
SWIDTH 900 0
DWIDTH 10 0
BBX 11 12 -1 -2
BITMAP
0000
0000
0000
3E00
7700
7700
7100
7F00
7F00
3E00
0000
0000
ENDCHAR
STARTCHAR char202
ENCODING 330
SWIDTH 900 0
DWIDTH 10 0
BBX 11 12 -1 -2
BITMAP
0000
0000
0000
7F00
3E00
5D00
6B00
7700
7F00
7F00
0000
0000
ENDCHAR
STARTCHAR char203
ENCODING 331
SWIDTH 900 0
DWIDTH 10 0
BBX 11 12 -1 -2
BITMAP
0000
0000
0000
7F00
4100
6300
5500
4900
4100
7F00
0000
0000
ENDCHAR
STARTCHAR char204
ENCODING 332
SWIDTH 900 0
DWIDTH 10 0
BBX 11 12 -1 -2
BITMAP
0000
0000
0000
0000
7F00
3E00
5D00
6300
7F00
7F00
0000
0000
ENDCHAR
STARTCHAR char205
ENCODING 333
SWIDTH 900 0
DWIDTH 10 0
BBX 11 12 -1 -2
BITMAP
0000
0000
0000
0000
7F00
4100
6300
5D00
4100
7F00
0000
0000
ENDCHAR
STARTCHAR char206
ENCODING 334
SWIDTH 900 0
DWIDTH 10 0
BBX 11 12 -1 -2
BITMAP
0000
0000
0000
5500
0000
7F00
7F00
7F00
0000
5500
0000
0000
ENDCHAR
STARTCHAR char207
ENCODING 335
SWIDTH 900 0
DWIDTH 10 0
BBX 11 12 -1 -2
BITMAP
0000
0000
0000
0400
0500
1500
1600
0C00
0400
0400
0000
0000
ENDCHAR
STARTCHAR char208
ENCODING 336
SWIDTH 900 0
DWIDTH 10 0
BBX 11 12 -1 -2
BITMAP
0000
0000
0000
7F00
5D00
6B00
7700
6B00
5D00
7F00
0000
0000
ENDCHAR
STARTCHAR char209
ENCODING 337
SWIDTH 900 0
DWIDTH 10 0
BBX 11 12 -1 -2
BITMAP
0000
0000
0000
6B00
6300
1C00
5D00
1C00
6300
6B00
0000
0000
ENDCHAR
STARTCHAR char210
ENCODING 338
SWIDTH 900 0
DWIDTH 10 0
BBX 11 12 -1 -2
BITMAP
0000
0000
1000
0300
4700
0E00
3400
4800
4800
3000
0000
0000
ENDCHAR
STARTCHAR char211
ENCODING 339
SWIDTH 900 0
DWIDTH 10 0
BBX 11 12 -1 -2
BITMAP
0000
0000
0000
0000
4400
7E00
7F00
7F00
3E00
0400
0000
0000
ENDCHAR
STARTCHAR char212
ENCODING 340
SWIDTH 900 0
DWIDTH 10 0
BBX 11 12 -1 -2
BITMAP
0000
0000
0000
0000
1100
3F00
7F00
7F00
3E00
1000
0000
0000
ENDCHAR
STARTCHAR char213
ENCODING 341
SWIDTH 900 0
DWIDTH 10 0
BBX 11 12 -1 -2
BITMAP
0000
0000
0000
0000
1000
3E00
7F00
7F00
3F00
1100
0000
0000
ENDCHAR
STARTCHAR char214
ENCODING 342
SWIDTH 900 0
DWIDTH 10 0
BBX 11 12 -1 -2
BITMAP
0000
0000
0000
0000
0400
3E00
7F00
7F00
7E00
4400
0000
0000
ENDCHAR
STARTCHAR char215
ENCODING 343
SWIDTH 900 0
DWIDTH 10 0
BBX 11 12 -1 -2
BITMAP
0000
0000
0000
0000
2200
1400
0800
1400
2200
0000
0000
0000
ENDCHAR
STARTCHAR char216
ENCODING 344
SWIDTH 900 0
DWIDTH 10 0
BBX 11 12 -1 -2
BITMAP
0000
0000
0000
0000
0400
7E00
7F00
7F00
7E00
0400
0000
0000
ENDCHAR
STARTCHAR char217
ENCODING 345
SWIDTH 900 0
DWIDTH 10 0
BBX 11 12 -1 -2
BITMAP
0000
0000
0000
0000
1000
3F00
7F00
7F00
3F00
1000
0000
0000
ENDCHAR
STARTCHAR char218
ENCODING 346
SWIDTH 900 0
DWIDTH 10 0
BBX 11 12 -1 -2
BITMAP
0000
0000
0000
1E00
1E00
1E00
1E00
3F00
1E00
0C00
0000
0000
ENDCHAR
STARTCHAR char219
ENCODING 347
SWIDTH 900 0
DWIDTH 10 0
BBX 11 12 -1 -2
BITMAP
0000
0000
0000
0C00
1E00
3F00
1E00
1E00
1E00
1E00
0000
0000
ENDCHAR
STARTCHAR char220
ENCODING 348
SWIDTH 900 0
DWIDTH 10 0
BBX 11 12 -1 -2
BITMAP
0000
0000
0000
0C00
1E00
3F00
1E00
1E00
1E00
3C00
0000
0000
ENDCHAR
STARTCHAR char221
ENCODING 349
SWIDTH 900 0
DWIDTH 10 0
BBX 11 12 -1 -2
BITMAP
0000
0000
0000
3C00
1E00
1E00
1E00
3F00
1E00
0C00
0000
0000
ENDCHAR
STARTCHAR char222
ENCODING 350
SWIDTH 900 0
DWIDTH 10 0
BBX 11 12 -1 -2
BITMAP
0000
0000
0000
0C00
1E00
3F00
1E00
1E00
1E00
0F00
0000
0000
ENDCHAR
STARTCHAR char223
ENCODING 351
SWIDTH 900 0
DWIDTH 10 0
BBX 11 12 -1 -2
BITMAP
0000
0000
0000
0F00
1E00
1E00
1E00
3F00
1E00
0C00
0000
0000
ENDCHAR
STARTCHAR char224
ENCODING 352
SWIDTH 900 0
DWIDTH 10 0
BBX 11 12 -1 -2
BITMAP
0000
0000
0000
3E00
4100
4100
4100
7700
7700
3600
0000
0000
ENDCHAR
STARTCHAR char225
ENCODING 353
SWIDTH 900 0
DWIDTH 10 0
BBX 11 12 -1 -2
BITMAP
0000
0000
0000
0C00
0C00
2D00
2100
1E00
0C00
1E00
0000
0000
ENDCHAR
STARTCHAR char226
ENCODING 354
SWIDTH 900 0
DWIDTH 10 0
BBX 11 12 -1 -2
BITMAP
0000
0000
0000
0000
1100
1300
1700
1700
1300
1100
0000
0000
ENDCHAR
STARTCHAR char227
ENCODING 355
SWIDTH 900 0
DWIDTH 10 0
BBX 11 12 -1 -2
BITMAP
0000
0000
0000
0000
0900
1B00
3F00
3F00
1B00
0900
0000
0000
ENDCHAR
STARTCHAR char228
ENCODING 356
SWIDTH 900 0
DWIDTH 10 0
BBX 11 12 -1 -2
BITMAP
0000
0000
0000
0000
1E00
3F00
3F00
3F00
3F00
1E00
0000
0000
ENDCHAR
STARTCHAR char229
ENCODING 357
SWIDTH 900 0
DWIDTH 10 0
BBX 11 12 -1 -2
BITMAP
0000
0000
0000
0000
3F00
3F00
3F00
3F00
3F00
3F00
0000
0000
ENDCHAR
STARTCHAR char230
ENCODING 358
SWIDTH 900 0
DWIDTH 10 0
BBX 11 12 -1 -2
BITMAP
0000
0000
0000
0000
0400
0600
0700
0700
0600
0400
0000
0000
ENDCHAR
STARTCHAR char231
ENCODING 359
SWIDTH 900 0
DWIDTH 10 0
BBX 11 12 -1 -2
BITMAP
0000
0000
0000
0000
1B00
1B00
1B00
1B00
1B00
1B00
0000
0000
ENDCHAR
STARTCHAR char232
ENCODING 360
SWIDTH 900 0
DWIDTH 10 0
BBX 11 12 -1 -2
BITMAP
0000
0000
0000
0000
2400
3600
3F00
3F00
3600
2400
0000
0000
ENDCHAR
STARTCHAR char233
ENCODING 361
SWIDTH 900 0
DWIDTH 10 0
BBX 11 12 -1 -2
BITMAP
0000
0000
0000
0000
1100
1900
1D00
1D00
1900
1100
0000
0000
ENDCHAR
STARTCHAR char234
ENCODING 362
SWIDTH 900 0
DWIDTH 10 0
BBX 11 12 -1 -2
BITMAP
0000
0000
0000
1F00
1F00
1100
1100
3300
7700
6600
0000
0000
ENDCHAR
STARTCHAR char235
ENCODING 363
SWIDTH 900 0
DWIDTH 10 0
BBX 11 12 -1 -2
BITMAP
0000
0000
0000
0200
0600
3D00
3A00
3400
0A00
1200
0000
0000
ENDCHAR
STARTCHAR char236
ENCODING 364
SWIDTH 900 0
DWIDTH 10 0
BBX 11 12 -1 -2
BITMAP
0000
0000
0000
0100
0300
1F00
1F00
1F00
0300
0100
0000
0000
ENDCHAR
STARTCHAR char237
ENCODING 365
SWIDTH 900 0
DWIDTH 10 0
BBX 11 12 -1 -2
BITMAP
0000
0000
0000
0400
0C00
7D00
7D00
7D00
0C00
0400
0000
0000
ENDCHAR
STARTCHAR char238
ENCODING 366
SWIDTH 900 0
DWIDTH 10 0
BBX 11 12 -1 -2
BITMAP
0000
0000
0000
0400
1F00
1100
1100
1100
1100
1F00
0000
0000
ENDCHAR
STARTCHAR char239
ENCODING 367
SWIDTH 900 0
DWIDTH 10 0
BBX 11 12 -1 -2
BITMAP
0000
0000
0000
0400
1F00
1100
1100
1500
1100
1F00
0000
0000
ENDCHAR
STARTCHAR char240
ENCODING 368
SWIDTH 900 0
DWIDTH 10 0
BBX 11 12 -1 -2
BITMAP
0000
0000
0000
0400
1F00
1100
1500
1500
1100
1F00
0000
0000
ENDCHAR
STARTCHAR char241
ENCODING 369
SWIDTH 900 0
DWIDTH 10 0
BBX 11 12 -1 -2
BITMAP
0000
0000
0000
0000
7E00
4200
4300
4200
7E00
0000
0000
0000
ENDCHAR
STARTCHAR char242
ENCODING 370
SWIDTH 900 0
DWIDTH 10 0
BBX 11 12 -1 -2
BITMAP
0000
0000
0000
0000
7E00
4200
5300
4200
7E00
0000
0000
0000
ENDCHAR
STARTCHAR char243
ENCODING 371
SWIDTH 900 0
DWIDTH 10 0
BBX 11 12 -1 -2
BITMAP
0000
0000
0000
0000
7E00
4200
5B00
4200
7E00
0000
0000
0000
ENDCHAR
STARTCHAR char244
ENCODING 372
SWIDTH 900 0
DWIDTH 10 0
BBX 11 12 -1 -2
BITMAP
0000
0000
7F00
7F00
6300
6300
6300
6300
7F00
7F00
0000
0000
ENDCHAR
STARTCHAR char245
ENCODING 373
SWIDTH 900 0
DWIDTH 10 0
BBX 11 12 -1 -2
BITMAP
0000
0000
7700
7700
7700
7700
0000
6B00
6B00
6B00
0000
0000
ENDCHAR
STARTCHAR char246
ENCODING 374
SWIDTH 900 0
DWIDTH 10 0
BBX 11 12 -1 -2
BITMAP
0000
0000
7700
7700
7000
7700
0700
7000
7700
7700
0000
0000
ENDCHAR
STARTCHAR char247
ENCODING 375
SWIDTH 900 0
DWIDTH 10 0
BBX 11 12 -1 -2
BITMAP
0000
0000
0000
1500
0000
1F00
1F00
1F00
0000
1500
0000
0000
ENDCHAR
STARTCHAR char248
ENCODING 376
SWIDTH 900 0
DWIDTH 10 0
BBX 11 12 -1 -2
BITMAP
0000
0000
7700
7700
7700
7700
7000
7500
7100
7500
0000
0000
ENDCHAR
STARTCHAR char249
ENCODING 377
SWIDTH 900 0
DWIDTH 10 0
BBX 11 12 -1 -2
BITMAP
0000
0000
7700
7700
7700
7700
7000
7500
7400
7500
0000
0000
ENDCHAR
STARTCHAR char250
ENCODING 378
SWIDTH 900 0
DWIDTH 10 0
BBX 11 12 -1 -2
BITMAP
0000
0000
6B00
6B00
0000
6B00
6B00
0000
6B00
6B00
0000
0000
ENDCHAR
STARTCHAR char251
ENCODING 379
SWIDTH 900 0
DWIDTH 10 0
BBX 11 12 -1 -2
BITMAP
0000
0000
7F00
7F00
7F00
7F00
0000
7F00
0000
7F00
0000
0000
ENDCHAR
STARTCHAR char252
ENCODING 380
SWIDTH 900 0
DWIDTH 10 0
BBX 11 12 -1 -2
BITMAP
0000
0000
7F00
7F00
7F00
7F00
0000
6B00
6B00
6B00
0000
0000
ENDCHAR
STARTCHAR char253
ENCODING 381
SWIDTH 900 0
DWIDTH 10 0
BBX 11 12 -1 -2
BITMAP
0000
0000
7B00
7B00
7B00
7B00
0300
7F00
7F00
7F00
0000
0000
ENDCHAR
STARTCHAR char254
ENCODING 382
SWIDTH 900 0
DWIDTH 10 0
BBX 11 12 -1 -2
BITMAP
0000
0000
7700
7700
7000
7700
7700
7000
7700
7700
0000
0000
ENDCHAR
STARTCHAR char255
ENCODING 383
SWIDTH 900 0
DWIDTH 10 0
BBX 11 12 -1 -2
BITMAP
0000
0000
7F00
7F00
7F00
7F00
7F00
7F00
7F00
7F00
0000
0000
ENDCHAR
STARTCHAR char340
ENCODING 384
SWIDTH 900 0
DWIDTH 10 0
BBX 11 12 -1 -2
BITMAP
0000
0000
0F00
1980
3DC0
3D40
2940
29C0
1380
0F00
0000
0000
ENDCHAR
STARTCHAR char256
ENCODING 385
SWIDTH 900 0
DWIDTH 10 0
BBX 11 12 -1 -2
BITMAP
0000
0000
3000
7600
6F00
2F00
7600
6F00
1F80
1F80
0000
0000
ENDCHAR
STARTCHAR char256
ENCODING 386
SWIDTH 900 0
DWIDTH 10 0
BBX 11 12 -1 -2
BITMAP
0000
0000
0000
7FC0
4040
5040
4840
5640
4040
7FC0
0000
0000
ENDCHAR
STARTCHAR char256
ENCODING 387
SWIDTH 900 0
DWIDTH 10 0
BBX 11 12 -1 -2
BITMAP
0000
7C00
4600
4700
4780
4080
4080
4080
4080
4080
7F80
0000
ENDCHAR
STARTCHAR char256
ENCODING 388
SWIDTH 900 0
DWIDTH 10 0
BBX 11 12 -1 -2
BITMAP
0000
0000
7FE0
4020
5020
4820
5020
4020
4020
7FE0
0000
0000
ENDCHAR
STARTCHAR char252
ENCODING 389
SWIDTH 900 0
DWIDTH 10 0
BBX 11 12 -1 -2
BITMAP
0000
0000
7F00
5A80
5A80
5E80
4080
4080
4080
7F80
0000
0000
ENDCHAR
STARTCHAR char304
ENCODING 390
SWIDTH 900 0
DWIDTH 10 0
BBX 11 12 -1 -2
BITMAP
0000
0000
1E00
3B00
7380
7F80
7000
7C00
3F00
1E00
0000
0000
ENDCHAR
STARTCHAR char316
ENCODING 391
SWIDTH 900 0
DWIDTH 10 0
BBX 11 12 -1 -2
BITMAP
0000
0400
0400
0E00
0E00
1F00
1F00
3B80
3180
71C0
4040
0000
ENDCHAR
STARTCHAR AE
ENCODING 392
SWIDTH 900 0
DWIDTH 10 0
BBX 11 12 -1 -2
BITMAP
0000
0000
3FC0
2040
2040
2040
2040
3FC0
0600
3FC0
0000
0000
ENDCHAR
STARTCHAR char256
ENCODING 393
SWIDTH 900 0
DWIDTH 10 0
BBX 11 12 -1 -2
BITMAP
0000
0000
7B80
7B80
7800
0380
7B80
7800
7B80
7B80
0000
0000
ENDCHAR
STARTCHAR char256
ENCODING 394
SWIDTH 900 0
DWIDTH 10 0
BBX 11 12 -1 -2
BITMAP
0000
0000
3E00
3E00
3E00
3EC0
3EC0
00C0
07C0
07C0
0000
0000
ENDCHAR
STARTCHAR char256
ENCODING 395
SWIDTH 900 0
DWIDTH 10 0
BBX 11 12 -1 -2
BITMAP
0000
0000
7F80
7F80
7F80
7F80
7F80
7F80
7F80
7F80
0000
0000
ENDCHAR
STARTCHAR char256
ENCODING 396
SWIDTH 900 0
DWIDTH 10 0
BBX 11 12 -1 -2
BITMAP
0000
0000
7780
7780
7780
7780
0000
6D80
6D80
6D80
0000
0000
ENDCHAR
STARTCHAR char256
ENCODING 397
SWIDTH 900 0
DWIDTH 10 0
BBX 11 12 -1 -2
BITMAP
0000
0000
6D80
6D80
0000
6D80
6D80
0000
6D80
6D80
0000
0000
ENDCHAR
STARTCHAR char144
ENCODING 398
SWIDTH 900 0
DWIDTH 10 0
BBX 11 12 -1 -2
BITMAP
0000
0000
1F80
1F80
1080
1080
1080
1080
7380
7380
0000
0000
ENDCHAR
STARTCHAR char319
ENCODING 399
SWIDTH 900 0
DWIDTH 10 0
BBX 11 12 -1 -2
BITMAP
0000
0000
6D80
4080
1E00
5E80
5E80
1E00
4080
6D80
0000
0000
ENDCHAR
STARTCHAR char308
ENCODING 400
SWIDTH 900 0
DWIDTH 10 0
BBX 11 12 -1 -2
BITMAP
0000
0000
1C00
1C00
1C00
1C00
7F00
3E00
1C00
0800
0000
0000
ENDCHAR
STARTCHAR char308
ENCODING 401
SWIDTH 900 0
DWIDTH 10 0
BBX 11 12 -1 -2
BITMAP
0000
0000
0800
1C00
3E00
7F00
1C00
1C00
1C00
1C00
0000
0000
ENDCHAR
STARTCHAR char256
ENCODING 402
SWIDTH 900 0
DWIDTH 10 0
BBX 11 12 -1 -2
BITMAP
0000
0000
3F00
7F80
7F80
7F80
7F80
3F00
0600
0C00
0000
0000
ENDCHAR
STARTCHAR char305
ENCODING 403
SWIDTH 900 0
DWIDTH 10 0
BBX 11 12 -1 -2
BITMAP
0000
0000
0000
7FC0
5F40
6EC0
75C0
6AC0
5F40
7FC0
0000
0000
ENDCHAR
STARTCHAR char278
ENCODING 404
SWIDTH 900 0
DWIDTH 10 0
BBX 11 12 -1 -2
BITMAP
0000
0000
0800
1900
7880
7A80
7A80
7880
1900
0800
0000
0000
ENDCHAR
STARTCHAR char340
ENCODING 405
SWIDTH 900 0
DWIDTH 10 0
BBX 11 12 -1 -2
BITMAP
0000
0000
1E00
3700
7780
7780
7080
7F80
3F00
1E00
0000
0000
ENDCHAR
STARTCHAR char293
ENCODING 406
SWIDTH 900 0
DWIDTH 10 0
BBX 11 12 -1 -2
BITMAP
0000
0000
0000
0000
0000
3800
3800
3800
0000
0000
0000
0000
ENDCHAR
STARTCHAR multiply
ENCODING 407
SWIDTH 900 0
DWIDTH 10 0
BBX 11 12 -1 -2
BITMAP
0000
0000
0000
0000
4400
2800
1000
2800
4400
0000
0000
0000
ENDCHAR
STARTCHAR Oslash
ENCODING 408
SWIDTH 900 0
DWIDTH 10 0
BBX 11 12 -1 -2
BITMAP
0000
0000
3A00
4400
4C00
5400
6400
4400
4400
3800
0000
0000
ENDCHAR
STARTCHAR Ugrave
ENCODING 409
SWIDTH 900 0
DWIDTH 10 0
BBX 11 12 -1 -2
BITMAP
0000
0000
3FC0
3FC0
0600
0600
3FC0
36C0
30C0
3FC0
0000
0000
ENDCHAR
STARTCHAR uni2B80
ENCODING 410
SWIDTH 900 0
DWIDTH 10 0
BBX 11 12 -1 -2
BITMAP
4000
6000
7000
7800
7C00
7E00
7E00
7C00
7800
7000
6000
4000
ENDCHAR
STARTCHAR uni2B81
ENCODING 411
SWIDTH 900 0
DWIDTH 10 0
BBX 11 12 -1 -2
BITMAP
4000
2000
1000
0800
0400
0200
0200
0400
0800
1000
2000
4000
ENDCHAR
STARTCHAR uni2B82
ENCODING 412
SWIDTH 900 0
DWIDTH 10 0
BBX 11 12 -1 -2
BITMAP
0200
0600
0E00
1E00
3E00
7E00
7E00
3E00
1E00
0E00
0600
0200
ENDCHAR
STARTCHAR uni2B83
ENCODING 413
SWIDTH 900 0
DWIDTH 10 0
BBX 11 12 -1 -2
BITMAP
0200
0400
0800
1000
2000
4000
4000
2000
1000
0800
0400
0200
ENDCHAR
STARTCHAR char319
ENCODING 414
SWIDTH 900 0
DWIDTH 10 0
BBX 11 12 -1 -2
BITMAP
0000
0000
5500
0000
7F00
7F00
7F00
7F00
0000
5500
0000
0000
ENDCHAR
STARTCHAR char340
ENCODING 415
SWIDTH 900 0
DWIDTH 10 0
BBX 11 12 -1 -2
BITMAP
0000
0000
1E00
2100
4080
4080
5280
7380
3300
1200
0000
0000
ENDCHAR
STARTCHAR char278
ENCODING 416
SWIDTH 900 0
DWIDTH 10 0
BBX 11 12 -1 -2
BITMAP
0000
0000
0800
1900
7880
7A80
7A80
7880
1900
0800
0000
0000
ENDCHAR
STARTCHAR char278
ENCODING 417
SWIDTH 900 0
DWIDTH 10 0
BBX 11 12 -1 -2
BITMAP
0000
0000
0800
1800
7800
7A00
7A00
7800
1800
0800
0000
0000
ENDCHAR
STARTCHAR char278
ENCODING 418
SWIDTH 900 0
DWIDTH 10 0
BBX 11 12 -1 -2
BITMAP
0000
0000
0800
1800
7800
7800
7800
7800
1800
0800
0000
0000
ENDCHAR
STARTCHAR char256
ENCODING 419
SWIDTH 900 0
DWIDTH 10 0
BBX 11 12 -1 -2
BITMAP
0000
0000
3FC0
2040
2840
2440
2840
2040
2040
3FC0
0000
0000
ENDCHAR
ENDFONT
